<?xml version="1.0" encoding="UTF-8"?>
<svg width="48" height="48" version="1.1" viewBox="0 0 12.7 12.7" xmlns="http://www.w3.org/2000/svg">
 <g fill="#ffaf0f">
  <path d="m6.4 1.2c-2.34-0-4.37 1.7-4.37 3.74 0 1.53 0.822 2.66 2.18 3.32-0.034 1.11 0.644 1.6 2.2 3.24 1.55-1.64 2.24-2.13 2.2-3.26 1.37-0.658 2.22-1.89 2.2-3.3 0-1.94-1.97-3.74-4.41-3.74z"/>
 </g>
 <g fill="none" stroke="#000000" stroke-width=".254">
  <path d="m3.53 2.15c-2.32 1.9-1.62 4.36-0.19 5.57 1.9 1.46 4.51 1.43 6.35-0.215 1.76-1.69 1.18-3.86 0.00468-5-1.37-1.38-4.18-1.89-6.16-0.357z"/>
  <path d="m6.4 4.59c0.244 0.07 0.487 0.15 0.726 0.236 0.287 0.244 0.564 0.5 0.828 0.757 0.18-0.117 0.34-0.254 0.477-0.407-0.189-0.321-0.396-0.637-0.615-0.937-0.06-0.234-0.136-0.46-0.209-0.677 0.0723-0.198 0.142-0.386 0.21-0.559 0.196-0.167 0.4-0.326 0.615-0.467-0.137-0.153-0.298-0.29-0.477-0.407-0.284 0.068-0.559 0.169-0.828 0.288-0.239 0.0268-0.482 0.06-0.726 0.119-0.244-0.0521-0.487-0.092-0.726-0.119-0.287-0.128-0.564-0.225-0.828-0.288-0.18 0.117-0.34 0.254-0.477 0.407 0.189 0.123 0.396 0.28 0.615 0.467 0.06 0.174 0.136 0.36 0.21 0.559-0.0723 0.218-0.142 0.444-0.21 0.677-0.219 0.303-0.425 0.618-0.615 0.937 0.137 0.153 0.298 0.29 0.477 0.407 0.261-0.26 0.538-0.516 0.802-0.68s0.507-0.243 0.751-0.313z"/>
  <path d="m7.81 4.25-0.21 1"/>
  <path d="m7.6 3.57-0.292 1.43"/>
  <path d="m4.99 4.25 0.207 1.02"/>
  <path d="m5.2 3.57 0.3 1.43"/>
  <path d="m5.67 2.43v1.61c-0.133 0-0.234 0.116-0.32 0.2"/>
  <path d="m6.4 2.54v1.85"/>
  <path d="m7.13 2.43 0.0214 1.61c0.133 0.04 0.234 0.116 0.32 0.203"/>
  <path d="m7.95 2.14c-0.26 0.625-0.52 1.25-0.81 1.9-0.257 0.144-0.5 0.262-0.748 0.352-0.251-0.1-0.5-0.21-0.748-0.352-0.283-0.648-0.544-1.28-0.81-1.9"/>
  <path d="m8.6 8.33c0 2.49-4.4 2.49-4.4 0"/>
  <path d="m4.84 9.84c0.938 0.8 2.21 0.801 3.16-0.0208"/>
  <path d="m4.2 8.25c0 0.55 0.212 1.15 0.6 1.56l1.61 1.69 1.61-1.68c0.382-0.4 0.6-1 0.592-1.58"/>
 </g>
</svg>

