<?xml version="1.0" encoding="UTF-8"?>
<svg width="48" height="48" version="1.1" viewBox="0 0 48 48" xmlns="http://www.w3.org/2000/svg">
 <g fill="#ffaf0f">
  <path d="m7.83 17.7c0.00759 5.59 3.4 10.3 8.14 12.6-0.0378 2.06 0.259 4.73 2.41 7.2l5.7 6.11 5.94-6.37c1.49-1.72 2.08-3.6 2.18-7 5.1-2.79 7.89-6.66 7.95-12-0.0341-9.05-8.24-14.6-16.2-14.5-7.86 0.0341-16 5.37-16.1 13.9z"/>
 </g>
 <g fill="none" stroke="#000000" stroke-linecap="round" stroke-width="1.1">
  <path d="m16 6.31c2.31-0 5.77 1.82 9.44 5s7.15 7.38 9.44 11.4c-0.822 0.96-1.79 1.8-2.86 2.49-2.31-4-5.77-8.22-9.44-11.4s-7.37-5-9.66-5c0.8-0.953 2-1.8 3.1-2.49l18.9 16.4" stroke-linejoin="round"/>
  <path d="m34.1 6.74c-6.23-4.5-16.5-4-22.2 1.6-5.7 5.63-5.32 15.1 1.53 20.2s17.5 4.65 23.3-1.83 3.64-15.5-2.59-20z"/>
  <path d="m32.3 30.2c0 2.55-0.8 5.51-2.25 7.13l-5.93 6.36-5.93-6.36c-1.77-2.37-2.2-4.2-2.2-6.9"/>
  <path d="m16 31.8c2.21 10.4 15.7 8 16.2 0.13"/>
  <path d="m18.1 37.2c2.77 3.13 8.43 3.39 11.5 0.53"/>
 </g>
</svg>
